<svg width="179" height="179" viewBox="0 0 179 179" fill="none" xmlns="http://www.w3.org/2000/svg">
<rect width="179" height="179" fill="#820AD1"/>
<path fill-rule="evenodd" clip-rule="evenodd" d="M45.0352 78.0485V45.0365H82.625C84.205 45.0365 85.4651 46.3255 85.4951 47.8575C85.5051 47.8765 85.5051 47.8945 85.5051 47.9135V58.1685H98.675C100.275 58.1685 101.555 59.4885 101.555 61.0455V88.3505C101.555 89.9065 100.275 91.1805 98.675 91.1805H61.0852V84.5155H61.1152V78.0545H61.0852V78.0485H45.0352ZM61.0852 72.2945V58.1685H79.0352V51.8275C79.0352 51.3085 78.6152 50.8845 78.0452 50.8845H51.4551V72.2945H61.0852ZM85.5051 64.0165V75.2185C85.5051 76.7745 84.225 78.0485 82.625 78.0485H67.5051V85.4265H94.0952C94.6652 85.4265 95.0952 85.0025 95.0952 84.4835V64.9595C95.0952 64.4405 94.6652 64.0165 94.0952 64.0165H85.5051ZM79.0352 64.0165H67.5051V72.2945H78.0452C78.6152 72.2945 79.0352 71.8705 79.0352 71.3515V64.0165ZM91.9651 50.6785V45.0365H112.705C124.445 45.0365 133.965 54.5525 133.965 66.2915V112.708C133.965 124.447 124.445 133.964 112.705 133.964H45.0352V84.5155H50.6752V128.321H112.705C121.335 128.321 128.325 121.331 128.325 112.708V66.2915C128.325 57.6685 121.335 50.6785 112.705 50.6785H91.9651Z" fill="white"/>
</svg>
